<?xml version="1.0" encoding="utf-8"?>
<svg viewBox="2 2 20 20" width="666.667px" height="666.667px" xmlns="http://www.w3.org/2000/svg">
  <circle cx="12.012" cy="11.965" r="9.014" stroke-width="1.5" style="stroke: rgb(197, 197, 197); fill: none;"/>
  <path d="M 8.406 9.712 C 8.406 9.292 8.406 9.082 8.475 8.917 C 8.566 8.695 8.742 8.52 8.963 8.429 C 9.129 8.359 9.338 8.359 9.759 8.359 C 10.179 8.359 10.388 8.359 10.553 8.429 C 10.774 8.52 10.95 8.695 11.042 8.917 C 11.11 9.082 11.11 9.292 11.11 9.712 L 11.11 14.218 C 11.11 14.64 11.11 14.848 11.042 15.014 C 10.95 15.235 10.774 15.411 10.553 15.503 C 10.388 15.571 10.179 15.571 9.759 15.571 C 9.338 15.571 9.129 15.571 8.963 15.503 C 8.742 15.411 8.566 15.235 8.475 15.014 C 8.406 14.848 8.406 14.64 8.406 14.218 L 8.406 9.712 Z" stroke-width="1.5" style="stroke: rgb(197, 197, 197); fill: none;"/>
  <path d="M 12.913 9.712 C 12.913 9.292 12.913 9.082 12.982 8.917 C 13.073 8.695 13.249 8.52 13.469 8.429 C 13.635 8.359 13.845 8.359 14.265 8.359 C 14.686 8.359 14.895 8.359 15.06 8.429 C 15.282 8.52 15.457 8.695 15.549 8.917 C 15.618 9.082 15.618 9.292 15.618 9.712 L 15.618 14.218 C 15.618 14.64 15.618 14.848 15.549 15.014 C 15.457 15.235 15.282 15.411 15.06 15.503 C 14.895 15.571 14.686 15.571 14.265 15.571 C 13.845 15.571 13.635 15.571 13.469 15.503 C 13.249 15.411 13.073 15.235 12.982 15.014 C 12.913 14.848 12.913 14.64 12.913 14.218 L 12.913 9.712 Z" stroke-width="1.5" style="stroke: rgb(197, 197, 197); fill: none;"/>
</svg>