<?xml version="1.0" encoding="utf-8"?>
<svg viewBox="254.797 152.209 128.458 128.297" width="128.458" height="128.297" xmlns="http://www.w3.org/2000/svg">
  <path d="M 373.386 152.496 L 264.827 152.496 L 254.958 157.546 L 254.958 213.098 L 264.827 218.148 L 373.386 218.148 L 383.255 213.098 L 383.255 157.546 L 373.386 152.496 Z M 314.172 213.098 L 264.827 213.098 L 264.827 157.546 L 314.172 157.546 L 314.172 213.098 Z M 373.386 213.098 L 324.041 213.098 L 324.041 157.546 L 373.386 157.546 L 373.386 213.098 Z" style="fill: rgb(0, 120, 212);" transform="matrix(0.9999999999999999, 0, 0, 0.9999999999999999, 0, 0)"/>
  <path d="M 373.225 152.209 L 264.666 152.209 L 254.797 162.078 L 254.797 270.637 L 264.666 280.506 L 373.225 280.506 L 383.094 270.637 L 383.094 162.078 L 373.225 152.209 Z M 314.011 270.637 L 264.666 270.637 L 264.666 162.078 L 314.011 162.078 L 314.011 270.637 Z M 373.225 270.637 L 323.88 270.637 L 323.88 162.078 L 373.225 162.078 L 373.225 270.637 Z" style="fill: rgb(0, 120, 212);" transform="matrix(0, 1, -1, 0, 535.301987, -102.58799)"/>
</svg>