<?xml version="1.0" encoding="utf-8"?>
<svg viewBox="60.6729 65.5814 128.457 128.584" width="128.457" height="128.584" xmlns="http://www.w3.org/2000/svg">
  <g transform="matrix(0.9999999999999999, 0, 0, 0.9999999999999999, -1.1600929498672485, -7.540603160858154)">
    <path d="M 180.421 73.409 L 71.862 73.409 L 61.993 83.278 L 61.993 191.837 L 71.862 201.706 L 180.421 201.706 L 190.29 191.837 L 190.29 83.278 L 180.421 73.409 Z M 121.207 191.837 L 71.862 191.837 L 71.862 83.278 L 121.207 83.278 L 121.207 191.837 Z M 180.421 191.837 L 131.076 191.837 L 131.076 83.278 L 180.421 83.278 L 180.421 191.837 Z" fill="#C5C5C5" style=""/>
    <path d="M 180.261 73.122 L 71.702 73.122 L 61.833 82.991 L 61.833 191.55 L 71.702 201.419 L 180.261 201.419 L 190.13 191.55 L 190.13 82.991 L 180.261 73.122 Z M 121.047 191.55 L 71.702 191.55 L 71.702 82.991 L 121.047 82.991 L 121.047 191.55 Z M 180.261 191.55 L 130.916 191.55 L 130.916 82.991 L 180.261 82.991 L 180.261 191.55 Z" fill="#C5C5C5" style="" transform="matrix(0, 1, -1, 0, 263.252004, 11.288999)"/>
  </g>
</svg>