<?xml version="1.0" encoding="utf-8"?>
<svg viewBox="61.833 73.122 128.457 128.297" width="128.457" height="128.297" xmlns="http://www.w3.org/2000/svg">
  <path d="M 180.421 73.409 L 71.862 73.409 L 61.993 78.459 L 61.993 134.011 L 71.862 139.061 L 180.421 139.061 L 190.29 134.011 L 190.29 78.459 L 180.421 73.409 Z M 121.207 134.011 L 71.862 134.011 L 71.862 78.459 L 121.207 78.459 L 121.207 134.011 Z M 180.421 134.011 L 131.076 134.011 L 131.076 78.459 L 180.421 78.459 L 180.421 134.011 Z" fill="#C5C5C5" style="" transform="matrix(0.9999999999999999, 0, 0, 0.9999999999999999, 0, 0)"/>
  <path d="M 180.261 73.122 L 71.702 73.122 L 61.833 82.991 L 61.833 191.55 L 71.702 201.419 L 180.261 201.419 L 190.13 191.55 L 190.13 82.991 L 180.261 73.122 Z M 121.047 191.55 L 71.702 191.55 L 71.702 82.991 L 121.047 82.991 L 121.047 191.55 Z M 180.261 191.55 L 130.916 191.55 L 130.916 82.991 L 180.261 82.991 L 180.261 191.55 Z" fill="#C5C5C5" style="" transform="matrix(0, 1, -1, 0, 263.250999, 11.288998)"/>
</svg>